<mxfile host="app.diagrams.net" modified="2020-11-06T17:10:51.600Z" agent="5.0 (Macintosh; Intel Mac OS X 10_15_7) AppleWebKit/605.1.15 (KHTML, like Gecko) Version/14.0 Safari/605.1.15" etag="AO6hYBel1sciE369G22_" version="13.9.2" type="github">
  <diagram id="kBeBJugP5Pn80zO0XKQW" name="Page-1">
    <mxGraphModel dx="2450" dy="2795" grid="1" gridSize="10" guides="1" tooltips="1" connect="1" arrows="1" fold="1" page="1" pageScale="1" pageWidth="850" pageHeight="1100" math="0" shadow="0">
      <root>
        <mxCell id="0" />
        <mxCell id="1" parent="0" />
        <mxCell id="JUkWRvNM2PbdqH87d8eU-3" value="" style="shape=image;html=1;verticalAlign=top;verticalLabelPosition=bottom;labelBackgroundColor=#ffffff;imageAspect=0;aspect=fixed;image=https://cdn3.iconfinder.com/data/icons/letters-and-numbers-1/32/number_1_green-128.png;" vertex="1" parent="1">
          <mxGeometry x="2447.5" y="402.5" width="85" height="85" as="geometry" />
        </mxCell>
        <mxCell id="JUkWRvNM2PbdqH87d8eU-4" value="" style="shape=image;html=1;verticalAlign=top;verticalLabelPosition=bottom;labelBackgroundColor=#ffffff;imageAspect=0;aspect=fixed;image=https://cdn3.iconfinder.com/data/icons/letters-and-numbers-1/32/number_2_green-128.png;" vertex="1" parent="1">
          <mxGeometry x="2446.5" y="769.5" width="85" height="85" as="geometry" />
        </mxCell>
        <mxCell id="JUkWRvNM2PbdqH87d8eU-5" value="" style="shape=image;html=1;verticalAlign=top;verticalLabelPosition=bottom;labelBackgroundColor=#ffffff;imageAspect=0;aspect=fixed;image=https://cdn3.iconfinder.com/data/icons/letters-and-numbers-1/32/number_3_green-128.png;" vertex="1" parent="1">
          <mxGeometry x="2466.5" y="961.5" width="85" height="85" as="geometry" />
        </mxCell>
        <mxCell id="JUkWRvNM2PbdqH87d8eU-6" value="" style="shape=image;html=1;verticalAlign=top;verticalLabelPosition=bottom;labelBackgroundColor=#ffffff;imageAspect=0;aspect=fixed;image=https://cdn3.iconfinder.com/data/icons/letters-and-numbers-1/32/number_4_green-128.png;" vertex="1" parent="1">
          <mxGeometry x="2446.5" y="593.5" width="85" height="85" as="geometry" />
        </mxCell>
        <mxCell id="JUkWRvNM2PbdqH87d8eU-7" value="" style="shape=image;html=1;verticalAlign=top;verticalLabelPosition=bottom;labelBackgroundColor=#ffffff;imageAspect=0;aspect=fixed;image=https://cdn3.iconfinder.com/data/icons/letters-and-numbers-1/32/number_5_green-128.png;" vertex="1" parent="1">
          <mxGeometry x="2467.5" y="1159.5" width="85" height="85" as="geometry" />
        </mxCell>
        <mxCell id="JUkWRvNM2PbdqH87d8eU-8" value="" style="shape=image;html=1;verticalAlign=top;verticalLabelPosition=bottom;labelBackgroundColor=#ffffff;imageAspect=0;aspect=fixed;image=https://cdn3.iconfinder.com/data/icons/letters-and-numbers-1/32/number_6_green-128.png;" vertex="1" parent="1">
          <mxGeometry x="2466.5" y="1297.5" width="85" height="85" as="geometry" />
        </mxCell>
        <mxCell id="JUkWRvNM2PbdqH87d8eU-9" value="" style="shape=image;html=1;verticalAlign=top;verticalLabelPosition=bottom;labelBackgroundColor=#ffffff;imageAspect=0;aspect=fixed;image=https://cdn3.iconfinder.com/data/icons/letters-and-numbers-1/32/number_7_green-128.png;" vertex="1" parent="1">
          <mxGeometry x="2486.5" y="1539.5" width="85" height="85" as="geometry" />
        </mxCell>
        <mxCell id="JUkWRvNM2PbdqH87d8eU-10" value="" style="shape=image;html=1;verticalAlign=top;verticalLabelPosition=bottom;labelBackgroundColor=#ffffff;imageAspect=0;aspect=fixed;image=https://cdn3.iconfinder.com/data/icons/letters-and-numbers-1/32/number_8_green-128.png;" vertex="1" parent="1">
          <mxGeometry x="2319.5" y="419.5" width="85" height="85" as="geometry" />
        </mxCell>
        <mxCell id="JUkWRvNM2PbdqH87d8eU-11" value="" style="shape=image;html=1;verticalAlign=top;verticalLabelPosition=bottom;labelBackgroundColor=#ffffff;imageAspect=0;aspect=fixed;image=https://cdn3.iconfinder.com/data/icons/letters-and-numbers-1/32/number_9_green-128.png;" vertex="1" parent="1">
          <mxGeometry x="2150" y="319.5" width="85" height="85" as="geometry" />
        </mxCell>
      </root>
    </mxGraphModel>
  </diagram>
</mxfile>
